<?xml version="1.0" encoding="utf-8"?>
<!-- Generator: Adobe Illustrator 21.0.0, SVG Export Plug-In . SVG Version: 6.00 Build 0)  -->
<svg version="1.1" id="Layer_1" xmlns="http://www.w3.org/2000/svg" xmlns:xlink="http://www.w3.org/1999/xlink" x="0px" y="0px"
	 viewBox="0 0 1920 704" style="enable-background:new 0 0 1920 704;" xml:space="preserve">
<style type="text/css">
	.st0{fill:#F06925;}
</style>
<g transform="matrix(0.711382,0,0,0.711382,-134.947,-179.637)">
	<g transform="matrix(4.16667,0,0,4.16667,-1008.26,-785.989)">
		<path class="st0" d="M345.9,430.8h53.3v-7.4h-45.1v-56.9H398v-7.4h-43.9V314h45.1v-7.6h-53.3L345.9,430.8L345.9,430.8z"/>
	</g>
	<g transform="matrix(4.16667,0,0,4.16667,-1008.26,-785.989)">
		<path class="st0" d="M779.3,379.9c0,7.6-1.4,24.7-19.9,24.7s-19.9-17.1-19.9-24.7v-73.5h-34.9v74.2c0,13.3,3,53.8,54.8,53.8
			c51.9,0,54.8-40.5,54.8-53.8v-74.2h-34.9L779.3,379.9L779.3,379.9z"/>
	</g>
	<g transform="matrix(4.16667,0,0,4.16667,-1008.26,-785.989)">
		<path class="st0" d="M607.4,336.3h27.4v94.5h34.8v-94.5H697v-29.9h-89.7L607.4,336.3L607.4,336.3z"/>
	</g>
	<g transform="matrix(4.16667,0,0,4.16667,-1008.26,-785.989)">
		<path class="st0" d="M565.6,379.9c0,7.6-1.4,24.7-19.8,24.7c-18.5,0-19.9-17.1-19.9-24.7v-73.5H491v74.2
			c0,13.3,2.9,53.8,54.8,53.8c51.9,0,54.7-40.5,54.7-53.8v-74.2h-34.9V379.9z"/>
	</g>
	<g transform="matrix(4.16667,0,0,4.16667,-1008.26,-785.989)">
		<path class="st0" d="M409.2,430.8H444v-47.2h36.1V355H444v-18.6h39.9v-29.9h-74.7V430.8z"/>
	</g>
	<g transform="matrix(4.16667,0,0,4.16667,-1008.26,-785.989)">
		<path class="st0" d="M302.6,306.4h-8.2v124.5h42.9v-7.4h-34.7L302.6,306.4L302.6,306.4z"/>
	</g>
	<g transform="matrix(4.16667,0,0,4.16667,-1008.26,-785.989)">
		<path class="st0" d="M891.8,381.1c11.7-4.1,26-13.9,26-37.3c0-5.8-1.3-37.4-43-37.4h-51.5v124.4h34.9v-41l26.3,41h42.1
			L891.8,381.1z M866.7,362.4h-8.6v-28.5h8.6c12.4,0,16.4,7.2,16.4,14.2C883.1,355.4,879.2,362.4,866.7,362.4"/>
	</g>
</g>
</svg>
